REM DIRINDEX 1\2,1\3,1\4,1\5,1\6
REM DIRNAME "folder01","folder02","folder03","folder04","folder05","folder06"
TITLE ""
FILE "Disc6Track13.mp3" MP3
  TRACK 01 AUDIO
    TITLE "3:cjc161_10913"
    INDEX 01 00:00:00
  TRACK 02 AUDIO
    TITLE "4:cjc161_10914"
    INDEX 01 00:01:08
  TRACK 03 AUDIO
    TITLE "5:cjc161_10915"
    INDEX 01 00:05:45
  TRACK 04 AUDIO
    TITLE "6:cjc161_10916"
    INDEX 01 00:06:68
  TRACK 05 AUDIO
    TITLE "0:"
    INDEX 01 00:11:53
  TRACK 06 AUDIO
    TITLE "3:cjc161_10917"
    INDEX 01 00:12:08
  TRACK 07 AUDIO
    TITLE "4:cjc161_10918"
    INDEX 01 00:13:36
  TRACK 08 AUDIO
    TITLE "5:cjc161_10919"
    INDEX 01 00:16:25
  TRACK 09 AUDIO
    TITLE "0:"
    INDEX 01 00:17:56
  TRACK 10 AUDIO
    TITLE "3:cjc161_10920"
    INDEX 01 00:18:14
  TRACK 11 AUDIO
    TITLE "4:cjc161_10921"
    INDEX 01 00:19:37
  TRACK 12 AUDIO
    TITLE "5:cjc161_10922"
    INDEX 01 00:24:07
  TRACK 13 AUDIO
    TITLE "6:cjc161_10923"
    INDEX 01 00:25:28
  TRACK 14 AUDIO
    TITLE "0:"
    INDEX 01 00:28:60
  TRACK 15 AUDIO
    TITLE "3:cjc161_10924"
    INDEX 01 00:29:18
  TRACK 16 AUDIO
    TITLE "4:cjc161_10925"
    INDEX 01 00:30:58
  TRACK 17 AUDIO
    TITLE "5:cjc161_10926"
    INDEX 01 00:31:60
  TRACK 18 AUDIO
    TITLE "0:"
    INDEX 01 00:33:29
  TRACK 19 AUDIO
    TITLE "3:cjc161_10927"
    INDEX 01 00:33:63
  TRACK 20 AUDIO
    TITLE "4:cjc161_10928"
    INDEX 01 00:35:11
  TRACK 21 AUDIO
    TITLE "5:cjc161_10929"
    INDEX 01 00:36:26
  TRACK 22 AUDIO
    TITLE "6:cjc161_10930"
    INDEX 01 00:37:47
  TRACK 23 AUDIO
    TITLE "0:"
    INDEX 01 00:39:67
  TRACK 24 AUDIO
    TITLE "3:cjc161_10931"
    INDEX 01 00:40:25
  TRACK 25 AUDIO
    TITLE "4:cjc161_10932"
    INDEX 01 00:41:45
  TRACK 26 AUDIO
    TITLE "5:cjc161_10933"
    INDEX 01 00:42:58
  TRACK 27 AUDIO
    TITLE "6:cjc161_10934"
    INDEX 01 00:44:02
  TRACK 28 AUDIO
    TITLE "0:"
    INDEX 01 00:49:13
  TRACK 29 AUDIO
    TITLE "3:cjc161_10935"
    INDEX 01 00:49:42
  TRACK 30 AUDIO
    TITLE "4:cjc161_10936"
    INDEX 01 00:50:47
  TRACK 31 AUDIO
    TITLE "5:cjc161_10937"
    INDEX 01 00:54:10
  TRACK 32 AUDIO
    TITLE "6:cjc161_10938"
    INDEX 01 00:55:15
  TRACK 33 AUDIO
    TITLE "0:"
    INDEX 01 00:58:14
  TRACK 34 AUDIO
    TITLE "3:cjc161_10939"
    INDEX 01 00:58:45
  TRACK 35 AUDIO
    TITLE "4:cjc161_10940"
    INDEX 01 00:59:70
  TRACK 36 AUDIO
    TITLE "5:cjc161_10941"
    INDEX 01 01:01:57
  TRACK 37 AUDIO
    TITLE "6:cjc161_10942"
    INDEX 01 01:03:07
  TRACK 38 AUDIO
    TITLE "0:"
    INDEX 01 01:06:50
  TRACK 39 AUDIO
    TITLE "3:cjc161_10943"
    INDEX 01 01:07:07
  TRACK 40 AUDIO
    TITLE "4:cjc161_10944"
    INDEX 01 01:08:36
  TRACK 41 AUDIO
    TITLE "5:cjc161_10945"
    INDEX 01 01:12:08
  TRACK 42 AUDIO
    TITLE "6:cjc161_10946"
    INDEX 01 01:13:35
  TRACK 43 AUDIO
    TITLE "0:"
    INDEX 01 01:15:32
  TRACK 44 AUDIO
    TITLE "3:cjc161_10947"
    INDEX 01 01:15:63
  TRACK 45 AUDIO
    TITLE "4:cjc161_10948"
    INDEX 01 01:17:21
  TRACK 46 AUDIO
    TITLE "5:cjc161_10949"
    INDEX 01 01:19:71
  TRACK 47 AUDIO
    TITLE "6:cjc161_10950"
    INDEX 01 01:21:28
  TRACK 48 AUDIO
    TITLE "0:"
    INDEX 01 01:27:07
  TRACK 49 AUDIO
    TITLE "3:cjc161_10951"
    INDEX 01 01:27:41
  TRACK 50 AUDIO
    TITLE "4:cjc161_10952"
    INDEX 01 01:28:60
  TRACK 51 AUDIO
    TITLE "5:cjc161_10953"
    INDEX 01 01:29:73
  TRACK 52 AUDIO
    TITLE "0:"
    INDEX 01 01:31:21
  TRACK 53 AUDIO
    TITLE "3:cjc161_10954"
    INDEX 01 01:31:56
  TRACK 54 AUDIO
    TITLE "4:cjc161_10955"
    INDEX 01 01:33:06
  TRACK 55 AUDIO
    TITLE "5:cjc161_10956"
    INDEX 01 01:34:06
  TRACK 56 AUDIO
    TITLE "6:cjc161_10957"
    INDEX 01 01:35:30
  TRACK 57 AUDIO
    TITLE "0:"
    INDEX 01 01:37:16
  TRACK 58 AUDIO
    TITLE "3:cjc161_10958"
    INDEX 01 01:37:45
  TRACK 59 AUDIO
    TITLE "4:cjc161_10959"
    INDEX 01 01:38:74
  TRACK 60 AUDIO
    TITLE "5:cjc161_10960"
    INDEX 01 01:41:15
  TRACK 61 AUDIO
    TITLE "6:cjc161_10961"
    INDEX 01 01:42:42
  TRACK 62 AUDIO
    TITLE "0:"
    INDEX 01 01:44:49
  TRACK 63 AUDIO
    TITLE "3:cjc161_10962"
    INDEX 01 01:45:01
  TRACK 64 AUDIO
    TITLE "4:cjc161_10963"
    INDEX 01 01:46:24
  TRACK 65 AUDIO
    TITLE "5:cjc161_10964"
    INDEX 01 01:47:65
  TRACK 66 AUDIO
    TITLE "0:"
    INDEX 01 01:49:15
